HIERARCHY
ROOT hip
{
  OFFSET 0 0 0
  CHANNELS 6 Xposition Yposition Zposition Zrotation Yrotation Xrotation
  JOINT abdomen
  {
    OFFSET 0 20.6881 -0.73152
    CHANNELS 3 Zrotation Xrotation Yrotation
    JOINT chest
    {
      OFFSET 0 11.7043 -0.48768
      CHANNELS 3 Zrotation Xrotation Yrotation
      JOINT neck
      {
        OFFSET 0 22.1894 -2.19456
        CHANNELS 3 Zrotation Xrotation Yrotation
        JOINT head
        {
          OFFSET -0.24384 7.07133 1.2192
          CHANNELS 3 Zrotation Xrotation Yrotation
          JOINT leftEye
          {
            OFFSET 4.14528 8.04674 8.04672
            CHANNELS 3 Zrotation Xrotation Yrotation
            End Site
            {
              OFFSET 1 0 0
            }
          }
          JOINT rightEye
          {
            OFFSET -3.6576 8.04674 8.04672
            CHANNELS 3 Zrotation Xrotation Yrotation
            End Site
            {
              OFFSET 1 0 0
            }
          }
        }
      }
      JOINT rCollar
      {
        OFFSET -2.68224 19.2634 -4.8768
        CHANNELS 3 Zrotation Xrotation Yrotation
        JOINT rShldr
        {
          OFFSET -8.77824 -1.95073 1.46304
          CHANNELS 3 Zrotation Xrotation Yrotation
          JOINT rForeArm
          {
            OFFSET -28.1742 -1.7115 0.48768
            CHANNELS 3 Zrotation Xrotation Yrotation
            JOINT rHand
            {
              OFFSET -22.5879 0.773209 7.07136
              CHANNELS 3 Zrotation Xrotation Yrotation
              JOINT rThumb1
              {
                OFFSET -1.2192 -0.487915 3.41376
                CHANNELS 3 Zrotation Xrotation Yrotation
                JOINT rThumb2
                {
                  OFFSET -3.37035 -0.52449 3.41376
                  CHANNELS 3 Zrotation Xrotation Yrotation
                  End Site
                  {
                    OFFSET -1.78271 -1.18214 1.43049
                  }
                }
              }
              JOINT rIndex1
              {
                OFFSET -7.75947 0.938293 5.60832
                CHANNELS 3 Zrotation Xrotation Yrotation
                JOINT rIndex2
                {
                  OFFSET -2.54057 -0.884171 1.56538
                  CHANNELS 3 Zrotation Xrotation Yrotation
                  End Site
                  {
                    OFFSET -1.62519 -0.234802 1.16502
                  }
                }
              }
              JOINT rMid1
              {
                OFFSET -8.24714 1.18213 3.41376
                CHANNELS 3 Zrotation Xrotation Yrotation
                JOINT rMid2
                {
                  OFFSET -3.10165 -0.590103 1.0647
                  CHANNELS 3 Zrotation Xrotation Yrotation
                  End Site
                  {
                    OFFSET -2.48547 -0.328903 0.83742
                  }
                }
              }
              JOINT rRing1
              {
                OFFSET -8.82822 0.546677 1.51678
                CHANNELS 3 Zrotation Xrotation Yrotation
                JOINT rRing2
                {
                  OFFSET -2.60934 -0.819778 -0.0198488
                  CHANNELS 3 Zrotation Xrotation Yrotation
                  End Site
                  {
                    OFFSET -2.33842 -0.294052 0.168128
                  }
                }
              }
              JOINT rPinky1
              {
                OFFSET -8.27202 -0.0477905 -0.4584
                CHANNELS 3 Zrotation Xrotation Yrotation
                JOINT rPinky2
                {
                  OFFSET -1.82734 -0.647385 -0.700984
                  CHANNELS 3 Zrotation Xrotation Yrotation
                  End Site
                  {
                    OFFSET -1.69225 -0.51767 -0.607171
                  }
                }
              }
            }
          }
        }
      }
      JOINT lCollar
      {
        OFFSET 2.68224 19.2634 -4.8768
        CHANNELS 3 Zrotation Xrotation Yrotation
        JOINT lShldr
        {
          OFFSET 8.77824 -1.95073 1.46304
          CHANNELS 3 Zrotation Xrotation Yrotation
          JOINT lForeArm
          {
            OFFSET 28.1742 -1.7115 0.48768
            CHANNELS 3 Zrotation Xrotation Yrotation
            JOINT lHand
            {
              OFFSET 22.5879 0.773209 7.07136
              CHANNELS 3 Zrotation Xrotation Yrotation
              JOINT lThumb1
              {
                OFFSET 1.2192 -0.487915 3.41376
                CHANNELS 3 Zrotation Xrotation Yrotation
                JOINT lThumb2
                {
                  OFFSET 3.37035 -0.52449 3.41376
                  CHANNELS 3 Zrotation Xrotation Yrotation
                  End Site
                  {
                    OFFSET 1.78271 -1.18214 1.43049
                  }
                }
              }
              JOINT lIndex1
              {
                OFFSET 7.75947 0.938293 5.60832
                CHANNELS 3 Zrotation Xrotation Yrotation
                JOINT lIndex2
                {
                  OFFSET 2.54057 -0.884171 1.56538
                  CHANNELS 3 Zrotation Xrotation Yrotation
                  End Site
                  {
                    OFFSET 1.62519 -0.234802 1.16502
                  }
                }
              }
              JOINT lMid1
              {
                OFFSET 8.24714 1.18213 3.41376
                CHANNELS 3 Zrotation Xrotation Yrotation
                JOINT lMid2
                {
                  OFFSET 3.10165 -0.590103 1.0647
                  CHANNELS 3 Zrotation Xrotation Yrotation
                  End Site
                  {
                    OFFSET 2.48547 -0.328903 0.83742
                  }
                }
              }
              JOINT lRing1
              {
                OFFSET 8.82822 0.546677 1.51678
                CHANNELS 3 Zrotation Xrotation Yrotation
                JOINT lRing2
                {
                  OFFSET 2.60934 -0.819778 -0.0198488
                  CHANNELS 3 Zrotation Xrotation Yrotation
                  End Site
                  {
                    OFFSET 2.33842 -0.294052 0.168128
                  }
                }
              }
              JOINT lPinky1
              {
                OFFSET 8.27202 -0.0477905 -0.4584
                CHANNELS 3 Zrotation Xrotation Yrotation
                JOINT lPinky2
                {
                  OFFSET 1.82734 -0.647385 -0.700984
                  CHANNELS 3 Zrotation Xrotation Yrotation
                  End Site
                  {
                    OFFSET 1.69225 -0.51767 -0.607171
                  }
                }
              }
            }
          }
        }
      }
    }
  }
  JOINT rButtock
  {
    OFFSET -8.77824 4.35084 1.2192
    CHANNELS 3 Zrotation Xrotation Yrotation
    JOINT rThigh
    {
      OFFSET 0 -1.70687 -2.19456
      CHANNELS 3 Zrotation Xrotation Yrotation
      JOINT rShin
      {
        OFFSET 0 -36.8199 0.73152
        CHANNELS 3 Zrotation Xrotation Yrotation
        JOINT rFoot
        {
          OFFSET 0.73152 -45.1104 -5.12064
          CHANNELS 3 Zrotation Xrotation Yrotation
          End Site
          {
            OFFSET -1.1221 -3.69964 12.103
          }
        }
      }
    }
  }
  JOINT lButtock
  {
    OFFSET 8.77824 4.35084 1.2192
    CHANNELS 3 Zrotation Xrotation Yrotation
    JOINT lThigh
    {
      OFFSET 0 -1.70687 -2.19456
      CHANNELS 3 Zrotation Xrotation Yrotation
      JOINT lShin
      {
        OFFSET 0 -36.8199 0.73152
        CHANNELS 3 Zrotation Xrotation Yrotation
        JOINT lFoot
        {
          OFFSET -0.73152 -45.1104 -5.12064
          CHANNELS 3 Zrotation Xrotation Yrotation
          End Site
          {
            OFFSET 1.1221 -3.69964 12.103
          }
        }
      }
    }
  }
}
MOTION
Frames:	7
Frame Time:	0.00833333
-7.06988 82.7412 44.2327 -9.1916 -10.5549 7.3869 0.400108 -4.22826 -3.7536 -1.34825 -9.67902 -1.51143 4.55003 4.50027 2.55119 12.7232 1.25464 3.81799 -0.0 0.0 0.0 -0.0 0.0 0.0 -8.01139e-14 -1.22896e-13 2.66645e-13 -26.8591 44.7046 101.524 -24.6993 -48.4413 100.99 -1.45044 -32.0471 -5.04744 1.27911e-09 2.08157e-10 8.08915e-10 2.18743e-09 3.42205e-10 1.4332e-09 1.27911e-09 2.08162e-10 8.08906e-10 7.73091 5.47488 0.417314 1.27911e-09 2.08161e-10 8.08911e-10 2.90554 0.965183 0.102902 1.27912e-09 2.08161e-10 8.08913e-10 10.2786 0.731801 0.0259123 1.27911e-09 2.08162e-10 8.08921e-10 2.22167 -0.733487 -0.20892 -8.01335e-14 -1.22901e-13 2.66446e-13 -49.2276 6.53764 -49.3115 23.8509 -18.8213 -49.1412 13.5323 -67.7164 20.0569 -2.74938e-10 3.6901e-09 8.65228e-10 -5.18237e-10 6.44506e-09 1.47029e-09 -2.74945e-10 3.69009e-09 8.65237e-10 -7.73091 5.47488 -0.417314 -2.74936e-10 3.69011e-09 8.65232e-10 -2.90554 0.965183 -0.102902 -2.74952e-10 3.69011e-09 8.65229e-10 -10.2786 0.731801 -0.0259123 -2.74933e-10 3.6901e-09 8.65219e-10 -2.22167 -0.733487 0.20892 -2.03217e-16 0.0 -3.88251e-19 4.91703 -4.00692 22.6974 0.0565376 -1.50123 0.376607 -2.38557 -4.94851 -11.1538 2.03217e-16 0.0 3.88251e-19 -0.388086 -1.64166 -45.6189 0.0962232 13.9753 0.582346 30.1947 -21.6095 64.4794
-7.06695 82.7392 44.2487 -9.1981 -10.5348 7.3939 0.444776 -4.18872 -3.73574 -1.49308 -9.75224 -1.5189 4.37384 4.64884 2.39693 13.0316 0.604581 3.63347 -0.0 0.0 0.0 -0.0 0.0 0.0 -3.36224e-14 -1.01303e-13 2.1353e-13 -26.589 44.8324 101.374 -24.6846 -48.4626 101.04 -1.44594 -32.0039 -5.03896 1.08577e-09 1.77258e-10 6.71765e-10 1.85844e-09 2.92272e-10 1.18968e-09 1.08577e-09 1.7726e-10 6.71756e-10 7.73091 5.47488 0.417314 1.08577e-09 1.77258e-10 6.7176e-10 2.90554 0.965183 0.102902 1.08578e-09 1.77259e-10 6.71762e-10 10.2786 0.731801 0.0259123 1.08576e-09 1.77259e-10 6.7177e-10 2.22167 -0.733487 -0.20892 -3.36261e-14 -1.01296e-13 2.1336e-13 -49.1359 6.61824 -49.2922 23.8603 -18.8385 -49.1706 13.5534 -67.7383 20.0797 7.32579e-12 3.24698e-09 1.033e-09 -4.27729e-11 5.76605e-09 1.7736e-09 7.31872e-12 3.24698e-09 1.03301e-09 -7.73091 5.47488 -0.417314 7.32876e-12 3.247e-09 1.033e-09 -2.90554 0.965183 -0.102902 7.31271e-12 3.24699e-09 1.033e-09 -10.2786 0.731801 -0.0259123 7.33074e-12 3.24698e-09 1.03299e-09 -2.22167 -0.733487 0.20892 -2.03217e-16 0.0 -3.88251e-19 4.92755 -4.00269 22.7205 0.0556843 -1.51001 0.375126 -2.39321 -4.95546 -11.1893 2.03217e-16 0.0 3.88251e-19 -0.349641 -1.65722 -45.5343 0.0947926 13.94 0.570571 29.988 -21.5306 64.3628
-7.05255 82.7362 44.2645 -9.1355 -10.5564 7.3984 0.485965 -4.15299 -3.72745 -1.59198 -9.80041 -1.5252 4.20398 4.77826 2.24159 13.2585 -0.0844858 3.45064 -0.0 0.0 0.0 -0.0 0.0 0.0 9.53689e-15 -6.99788e-14 1.87702e-13 -26.3886 44.9337 101.218 -24.6633 -48.4937 101.113 -1.44112 -31.9576 -5.02986 1.08432e-09 1.64969e-10 6.7867e-10 1.85729e-09 2.7175e-10 1.20008e-09 1.08432e-09 1.64969e-10 6.7866e-10 7.73091 5.47488 0.417314 1.08432e-09 1.64966e-10 6.78664e-10 2.90554 0.965183 0.102902 1.08433e-09 1.64966e-10 6.78666e-10 10.2786 0.731801 0.0259123 1.08431e-09 1.64968e-10 6.78673e-10 2.22167 -0.733487 -0.20892 9.54699e-15 -6.99652e-14 1.87553e-13 -49.0846 6.6744 -49.2607 23.8707 -18.8575 -49.2029 13.5523 -67.7371 20.0785 2.27174e-10 3.10077e-09 1.22499e-09 3.23654e-10 5.5923e-09 2.11518e-09 2.27167e-10 3.10078e-09 1.22501e-09 -7.73091 5.47488 -0.417314 2.27178e-10 3.1008e-09 1.225e-09 -2.90554 0.965183 -0.102902 2.27162e-10 3.10078e-09 1.225e-09 -10.2786 0.731801 -0.0259123 2.27179e-10 3.10077e-09 1.22499e-09 -2.22167 -0.733487 0.20892 -2.03217e-16 0.0 -3.88251e-19 4.93657 -4.00296 22.7214 0.0549744 -1.51363 0.374318 -2.39371 -4.95676 -11.1909 2.03217e-16 0.0 3.88251e-19 -0.323206 -1.66318 -45.4863 0.0939921 13.9182 0.56322 29.8705 -21.4805 64.3034
-7.04882 82.7367 44.2807 -9.1222 -10.5805 7.413 0.526353 -4.1165 -3.72046 -1.63286 -9.8119 -1.52691 4.04034 4.89646 2.07707 13.378 -0.879408 3.26259 -0.0 0.0 0.0 -0.0 0.0 0.0 4.81205e-14 -2.09209e-14 2.10212e-13 -26.2337 45.0361 101.011 -24.6332 -48.5372 101.215 -1.43359 -31.8847 -5.01561 1.44407e-09 1.89548e-10 9.47365e-10 2.47368e-09 3.09935e-10 1.67206e-09 1.44407e-09 1.89546e-10 9.47357e-10 7.73091 5.47488 0.417314 1.44407e-09 1.89543e-10 9.47359e-10 2.90554 0.965183 0.102902 1.44407e-09 1.89543e-10 9.47362e-10 10.2786 0.731801 0.0259123 1.44406e-09 1.89545e-10 9.47369e-10 2.22167 -0.733487 -0.20892 4.81468e-14 -2.09104e-14 2.10068e-13 -49.0897 6.70602 -49.2208 23.884 -18.8819 -49.2443 13.5143 -67.6977 20.0374 3.66483e-10 3.48571e-09 1.4944e-09 5.46546e-10 6.33441e-09 2.58542e-09 3.66475e-10 3.48573e-09 1.49442e-09 -7.73091 5.47488 -0.417314 3.66486e-10 3.48575e-09 1.49441e-09 -2.90554 0.965183 -0.102902 3.66472e-10 3.48572e-09 1.49441e-09 -10.2786 0.731801 -0.0259123 3.66487e-10 3.48571e-09 1.4944e-09 -2.22167 -0.733487 0.20892 -2.03217e-16 0.0 -3.88251e-19 4.9462 -4.01032 22.6822 0.0544965 -1.50787 0.374497 -2.38173 -4.94863 -11.1326 2.03217e-16 0.0 3.88251e-19 -0.309909 -1.65269 -45.4894 0.0940101 13.9144 0.561551 29.875 -21.4675 64.3265
-7.05819 82.7383 44.3033 -9.1712 -10.5954 7.4229 0.571709 -4.07442 -3.71601 -1.63794 -9.81073 -1.52637 3.87257 5.01797 1.90104 13.4337 -1.76826 3.06599 -0.0 0.0 0.0 -0.0 0.0 0.0 9.14945e-14 4.5869e-14 2.65228e-13 -26.1112 45.1503 100.773 -24.5966 -48.5895 101.338 -1.42428 -31.7942 -4.99792 2.06591e-09 2.4063e-10 1.40287e-09 3.53843e-09 3.90424e-10 2.47333e-09 2.06592e-09 2.40624e-10 1.40287e-09 7.73091 5.47488 0.417314 2.06591e-09 2.40622e-10 1.40287e-09 2.90554 0.965183 0.102902 2.06592e-09 2.40622e-10 1.40287e-09 10.2786 0.731801 0.0259123 2.0659e-09 2.40625e-10 1.40288e-09 2.22167 -0.733487 -0.20892 9.15394e-14 4.58706e-14 2.65079e-13 -49.1358 6.72588 -49.165 23.8999 -18.9114 -49.2943 13.454 -67.6348 19.9722 4.80439e-10 4.23957e-09 1.85125e-09 7.20359e-10 7.72454e-09 3.20447e-09 4.8043e-10 4.23959e-09 1.85127e-09 -7.73091 5.47488 -0.417314 4.80441e-10 4.23961e-09 1.85127e-09 -2.90554 0.965183 -0.102902 4.80431e-10 4.23959e-09 1.85127e-09 -10.2786 0.731801 -0.0259123 4.80441e-10 4.23957e-09 1.85126e-09 -2.22167 -0.733487 0.20892 -2.03217e-16 0.0 -3.88251e-19 4.96006 -4.02016 22.6163 0.0541548 -1.49564 0.375187 -2.3614 -4.93332 -11.0346 2.03217e-16 0.0 3.88251e-19 -0.296594 -1.63172 -45.5099 0.0943393 13.9176 0.561996 29.9286 -21.4688 64.3833
-7.06281 82.7365 44.3288 -9.1946 -10.6146 7.4369 0.611762 -4.04066 -3.73177 -1.61771 -9.80504 -1.52951 3.70823 5.11396 1.73349 13.4496 -2.60957 2.87891 -0.0 0.0 0.0 -0.0 0.0 0.0 1.35432e-13 1.12386e-13 3.17263e-13 -26.0864 45.2066 100.59 -24.5559 -48.6473 101.475 -1.41786 -31.7316 -4.98571 2.64324e-09 2.84905e-10 1.83652e-09 4.52659e-09 4.59606e-10 3.23586e-09 2.64325e-09 2.84897e-10 1.83652e-09 7.73091 5.47488 0.417314 2.64324e-09 2.84896e-10 1.83652e-09 2.90554 0.965183 0.102902 2.64325e-09 2.84896e-10 1.83652e-09 10.2786 0.731801 0.0259123 2.64323e-09 2.849e-10 1.83653e-09 2.22167 -0.733487 -0.20892 1.35488e-13 1.12378e-13 3.17109e-13 -49.198 6.72451 -49.0903 23.9145 -18.9382 -49.3399 13.3937 -67.5714 19.907 5.68433e-10 4.95697e-09 2.16835e-09 8.51871e-10 9.0397e-09 3.75386e-09 5.68422e-10 4.95699e-09 2.16838e-09 -7.73091 5.47488 -0.417314 5.68433e-10 4.95701e-09 2.16837e-09 -2.90554 0.965183 -0.102902 5.68426e-10 4.95699e-09 2.16837e-09 -10.2786 0.731801 -0.0259123 5.68433e-10 4.95697e-09 2.16837e-09 -2.22167 -0.733487 0.20892 -2.03217e-16 0.0 -3.88251e-19 4.97063 -4.03013 22.5537 0.0538226 -1.48422 0.376034 -2.34167 -4.91766 -10.9401 2.03217e-16 0.0 3.88251e-19 -0.290648 -1.61117 -45.5406 0.0949629 13.9263 0.564395 30.0111 -21.4836 64.453
-7.06632 82.735 44.3537 -9.2168 -10.6271 7.4686 0.636257 -4.02911 -3.78539 -1.58265 -9.80299 -1.54227 3.55438 5.15561 1.59445 13.4528 -3.26172 2.71909 -0.0 0.0 0.0 -0.0 0.0 0.0 1.75707e-13 1.60625e-13 3.30827e-13 -26.2256 45.1363 100.547 -24.5136 -48.7069 101.617 -1.41893 -31.7425 -4.98781 2.86944e-09 2.89068e-10 2.03964e-09 4.91321e-09 4.63868e-10 3.59157e-09 2.86945e-09 2.89059e-10 2.03963e-09 7.73091 5.47488 0.417314 2.86944e-09 2.89058e-10 2.03964e-09 2.90554 0.965183 0.102902 2.86944e-09 2.89058e-10 2.03964e-09 10.2786 0.731801 0.0259123 2.86943e-09 2.89063e-10 2.03965e-09 2.22167 -0.733487 -0.20892 1.75756e-13 1.60611e-13 3.30678e-13 -49.2512 6.6923 -48.9935 23.9233 -18.9547 -49.3679 13.3552 -67.5308 19.8654 6.29853e-10 5.23254e-09 2.3185e-09 9.47861e-10 9.55692e-09 4.01514e-09 6.29843e-10 5.23255e-09 2.31852e-09 -7.73091 5.47488 -0.417314 6.29854e-10 5.23257e-09 2.31851e-09 -2.90554 0.965183 -0.102902 6.29848e-10 5.23255e-09 2.31852e-09 -10.2786 0.731801 -0.0259123 6.29853e-10 5.23254e-09 2.31851e-09 -2.22167 -0.733487 0.20892 -2.03217e-16 0.0 -3.88251e-19 4.97043 -4.03782 22.5242 0.0533736 -1.48089 0.376685 -2.33142 -4.90856 -10.8922 2.03217e-16 0.0 3.88251e-19 -0.299488 -1.60193 -45.5737 0.0958629 13.9391 0.568584 30.1027 -21.5111 64.5148
